<svg width="35" height="35" viewBox="0 0 35 35" fill="none" xmlns="http://www.w3.org/2000/svg">
<rect width="35" height="35" rx="8" fill="#C8D6FF"/>
<path d="M18.4952 11.0196L9.80416 14.4383C9.74339 14.4535 9.74339 14.4991 9.78897 14.5295L15.4868 19.6803C15.5476 19.7411 15.5931 19.7259 15.6235 19.6499C15.9274 18.7687 16.2313 17.8874 16.5352 17.0061C16.6263 16.7478 16.5504 16.5807 16.3073 16.4743C15.8818 16.292 15.4716 16.0793 15.0917 15.8514C15.0158 15.8058 15.0158 15.7754 15.1221 15.7754H25.1351C25.1806 15.7754 25.2262 15.821 25.2262 15.8666C25.2262 15.8818 25.2262 15.8818 25.2262 15.897L23.7372 20.4248C23.6916 20.5768 23.5397 20.6831 23.3725 20.6831H15.6539C15.426 20.6831 15.2133 20.8351 15.1373 21.0478L13.1469 27.0039C13.0557 27.247 12.8886 27.3837 12.6303 27.3685L4.86607 27.3382C4.7749 27.3382 4.72932 27.2926 4.7749 27.2014L10.8678 9.27232C10.9437 9.0444 11.1109 8.92285 11.354 8.92285H30.1643C30.1795 8.92285 30.2099 8.93805 30.2099 8.96843V8.98363L28.5385 13.8913C28.4778 14.0585 28.3106 14.18 28.1283 14.18L17.5988 14.1344C17.538 14.1344 17.5228 14.1041 17.538 14.0585L18.4952 11.0196Z" fill="#30357C"/>
</svg>
